<svg width="70" height="70" viewBox="0 0 70 70" fill="none" xmlns="http://www.w3.org/2000/svg">
<circle cx="35" cy="35" r="35" fill="#F5F9FC"/>
<path fill-rule="evenodd" clip-rule="evenodd" d="M35 38C40.6775 38 45.437 41.321 46.676 47H23.324C24.563 41.321 29.3225 38 35 38M29 29C29 25.691 31.691 23 35 23C38.309 23 41 25.691 41 29C41 32.309 38.309 35 35 35C31.691 35 29 32.309 29 29M40.637 36.0095C42.686 34.361 44 31.835 44 29C44 24.029 39.971 20 35 20C30.029 20 26 24.029 26 29C26 31.835 27.314 34.361 29.363 36.0095C23.8745 38.072 20 43.1675 20 50H50C50 43.1675 46.1255 38.072 40.637 36.0095" fill="#304659"/>
</svg>
