<svg width="85" height="19" viewBox="0 0 85 19" fill="none" xmlns="http://www.w3.org/2000/svg">
<path d="M13.944 3.05999H8.55599V18H5.75999V3.05999H0.359985V0.71999H13.944V3.05999Z" fill="#F5F9FC"/>
<path d="M15.7736 8.02799C16.1576 7.25199 16.6216 6.64399 17.1656 6.20399C17.7096 5.75599 18.3616 5.53199 19.1216 5.53199C19.3856 5.53199 19.6336 5.56399 19.8656 5.62799C20.0976 5.68399 20.3056 5.77199 20.4896 5.89199L20.3096 7.83599C20.2776 7.97199 20.2256 8.06799 20.1536 8.12399C20.0896 8.17199 20.0016 8.19599 19.8896 8.19599C19.7696 8.19599 19.5976 8.17599 19.3736 8.13599C19.1496 8.08799 18.9136 8.06399 18.6656 8.06399C18.3056 8.06399 17.9856 8.11599 17.7056 8.21999C17.4336 8.32399 17.1856 8.47599 16.9616 8.67599C16.7456 8.87599 16.5536 9.11999 16.3856 9.40799C16.2176 9.69599 16.0616 10.024 15.9176 10.392V18H13.3376V5.75999H14.8376C15.1096 5.75999 15.2976 5.81199 15.4016 5.91599C15.5056 6.01199 15.5776 6.18399 15.6176 6.43199L15.7736 8.02799Z" fill="#F5F9FC"/>
<path d="M28.5495 12.648C27.6295 12.68 26.8535 12.756 26.2215 12.876C25.5895 12.988 25.0775 13.136 24.6855 13.32C24.2935 13.496 24.0095 13.708 23.8335 13.956C23.6655 14.204 23.5815 14.476 23.5815 14.772C23.5815 15.06 23.6255 15.308 23.7135 15.516C23.8095 15.716 23.9375 15.884 24.0975 16.02C24.2655 16.148 24.4575 16.244 24.6735 16.308C24.8975 16.364 25.1415 16.392 25.4055 16.392C26.0775 16.392 26.6535 16.268 27.1335 16.02C27.6215 15.764 28.0935 15.396 28.5495 14.916V12.648ZM21.7095 7.46399C23.0935 6.17599 24.7415 5.53199 26.6535 5.53199C27.3575 5.53199 27.9815 5.64799 28.5255 5.87999C29.0775 6.10399 29.5375 6.42399 29.9055 6.83999C30.2815 7.25599 30.5655 7.75199 30.7575 8.32799C30.9575 8.89599 31.0575 9.52799 31.0575 10.224V18H29.9055C29.6575 18 29.4695 17.964 29.3415 17.892C29.2135 17.812 29.1055 17.656 29.0175 17.424L28.7655 16.428C28.4535 16.708 28.1455 16.96 27.8415 17.184C27.5375 17.4 27.2215 17.584 26.8935 17.736C26.5735 17.888 26.2255 18 25.8495 18.072C25.4815 18.152 25.0735 18.192 24.6255 18.192C24.1295 18.192 23.6655 18.124 23.2335 17.988C22.8095 17.852 22.4415 17.648 22.1295 17.376C21.8175 17.096 21.5695 16.752 21.3855 16.344C21.2095 15.936 21.1215 15.456 21.1215 14.904C21.1215 14.432 21.2455 13.972 21.4935 13.524C21.7495 13.076 22.1655 12.676 22.7415 12.324C23.3255 11.964 24.0895 11.668 25.0335 11.436C25.9855 11.204 27.1575 11.072 28.5495 11.04V10.224C28.5495 9.34399 28.3615 8.68799 27.9855 8.25599C27.6095 7.82399 27.0575 7.60799 26.3295 7.60799C25.8335 7.60799 25.4175 7.67199 25.0815 7.79999C24.7455 7.91999 24.4535 8.05199 24.2055 8.19599C23.9575 8.33999 23.7375 8.47599 23.5455 8.60399C23.3535 8.72399 23.1495 8.78399 22.9335 8.78399C22.7575 8.78399 22.6055 8.73999 22.4775 8.65199C22.3575 8.55599 22.2575 8.43999 22.1775 8.30399L21.7095 7.46399Z" fill="#F5F9FC"/>
<path d="M44.5745 5.75999L39.6545 18H37.3265L32.4065 5.75999H34.5305C34.7305 5.75999 34.8945 5.81199 35.0225 5.91599C35.1585 6.01199 35.2465 6.12799 35.2865 6.26399L37.9985 13.392C38.1105 13.728 38.2105 14.06 38.2985 14.388C38.3865 14.716 38.4625 15.048 38.5265 15.384C38.5905 15.048 38.6665 14.72 38.7545 14.4C38.8505 14.072 38.9545 13.736 39.0665 13.392L41.8265 6.26399C41.8745 6.11999 41.9625 5.99999 42.0905 5.90399C42.2185 5.80799 42.3745 5.75999 42.5585 5.75999H44.5745Z" fill="#F5F9FC"/>
<path d="M54.014 10.5C54.014 10.068 53.95 9.66799 53.822 9.29999C53.702 8.92399 53.522 8.59999 53.282 8.32799C53.042 8.04799 52.742 7.83199 52.382 7.67999C52.03 7.51999 51.622 7.43999 51.158 7.43999C50.222 7.43999 49.486 7.70799 48.95 8.24399C48.414 8.77999 48.074 9.53199 47.93 10.5H54.014ZM47.858 12.084C47.89 12.78 47.998 13.384 48.182 13.896C48.366 14.4 48.61 14.82 48.914 15.156C49.226 15.492 49.594 15.744 50.018 15.912C50.45 16.072 50.93 16.152 51.458 16.152C51.962 16.152 52.398 16.096 52.766 15.984C53.134 15.864 53.454 15.736 53.726 15.6C53.998 15.456 54.23 15.328 54.422 15.216C54.614 15.096 54.79 15.036 54.95 15.036C55.158 15.036 55.318 15.116 55.43 15.276L56.162 16.224C55.858 16.584 55.514 16.888 55.13 17.136C54.746 17.384 54.338 17.588 53.906 17.748C53.474 17.9 53.03 18.008 52.574 18.072C52.118 18.144 51.674 18.18 51.242 18.18C50.394 18.18 49.606 18.04 48.878 17.76C48.158 17.472 47.53 17.052 46.994 16.5C46.466 15.948 46.05 15.264 45.746 14.448C45.45 13.632 45.302 12.692 45.302 11.628C45.302 10.78 45.434 9.98799 45.698 9.25199C45.97 8.51599 46.354 7.87599 46.85 7.33199C47.354 6.78799 47.962 6.35999 48.674 6.04799C49.394 5.72799 50.206 5.56799 51.11 5.56799C51.862 5.56799 52.558 5.69199 53.198 5.93999C53.838 6.17999 54.39 6.53599 54.854 7.00799C55.318 7.47999 55.678 8.05999 55.934 8.74799C56.198 9.42799 56.33 10.204 56.33 11.076C56.33 11.476 56.286 11.744 56.198 11.88C56.11 12.016 55.95 12.084 55.718 12.084H47.858Z" fill="#F5F9FC"/>
<path d="M61.364 0.23999V18H58.784V0.23999H61.364Z" fill="#F5F9FC"/>
<path d="M72.5765 10.5C72.5765 10.068 72.5125 9.66799 72.3845 9.29999C72.2645 8.92399 72.0846 8.59999 71.8446 8.32799C71.6046 8.04799 71.3045 7.83199 70.9445 7.67999C70.5925 7.51999 70.1846 7.43999 69.7206 7.43999C68.7846 7.43999 68.0486 7.70799 67.5126 8.24399C66.9766 8.77999 66.6365 9.53199 66.4925 10.5H72.5765ZM66.4205 12.084C66.4525 12.78 66.5605 13.384 66.7445 13.896C66.9285 14.4 67.1725 14.82 67.4765 15.156C67.7885 15.492 68.1566 15.744 68.5806 15.912C69.0126 16.072 69.4925 16.152 70.0205 16.152C70.5245 16.152 70.9605 16.096 71.3285 15.984C71.6965 15.864 72.0165 15.736 72.2885 15.6C72.5605 15.456 72.7926 15.328 72.9846 15.216C73.1766 15.096 73.3526 15.036 73.5126 15.036C73.7206 15.036 73.8805 15.116 73.9925 15.276L74.7245 16.224C74.4205 16.584 74.0766 16.888 73.6926 17.136C73.3086 17.384 72.9005 17.588 72.4685 17.748C72.0365 17.9 71.5926 18.008 71.1366 18.072C70.6806 18.144 70.2366 18.18 69.8046 18.18C68.9566 18.18 68.1685 18.04 67.4405 17.76C66.7205 17.472 66.0925 17.052 65.5565 16.5C65.0285 15.948 64.6125 15.264 64.3085 14.448C64.0125 13.632 63.8645 12.692 63.8645 11.628C63.8645 10.78 63.9965 9.98799 64.2605 9.25199C64.5325 8.51599 64.9165 7.87599 65.4125 7.33199C65.9165 6.78799 66.5245 6.35999 67.2365 6.04799C67.9565 5.72799 68.7685 5.56799 69.6725 5.56799C70.4245 5.56799 71.1206 5.69199 71.7606 5.93999C72.4006 6.17999 72.9525 6.53599 73.4165 7.00799C73.8805 7.47999 74.2406 8.05999 74.4966 8.74799C74.7606 9.42799 74.8925 10.204 74.8925 11.076C74.8925 11.476 74.8486 11.744 74.7606 11.88C74.6726 12.016 74.5125 12.084 74.2805 12.084H66.4205Z" fill="#F5F9FC"/>
<path d="M79.7346 8.02799C80.1186 7.25199 80.5825 6.64399 81.1265 6.20399C81.6705 5.75599 82.3225 5.53199 83.0826 5.53199C83.3465 5.53199 83.5945 5.56399 83.8265 5.62799C84.0585 5.68399 84.2665 5.77199 84.4505 5.89199L84.2705 7.83599C84.2385 7.97199 84.1865 8.06799 84.1145 8.12399C84.0505 8.17199 83.9625 8.19599 83.8505 8.19599C83.7305 8.19599 83.5585 8.17599 83.3345 8.13599C83.1105 8.08799 82.8745 8.06399 82.6265 8.06399C82.2665 8.06399 81.9465 8.11599 81.6665 8.21999C81.3945 8.32399 81.1465 8.47599 80.9225 8.67599C80.7065 8.87599 80.5145 9.11999 80.3465 9.40799C80.1786 9.69599 80.0225 10.024 79.8785 10.392V18H77.2985V5.75999H78.7985C79.0705 5.75999 79.2585 5.81199 79.3625 5.91599C79.4665 6.01199 79.5385 6.18399 79.5785 6.43199L79.7346 8.02799Z" fill="#F5F9FC"/>
</svg>
