<svg width="70" height="70" viewBox="0 0 70 70" fill="none" xmlns="http://www.w3.org/2000/svg">
<circle cx="35" cy="35" r="35" fill="#F5F9FC"/>
<path fill-rule="evenodd" clip-rule="evenodd" d="M35.5 32.9525C34.6735 32.9525 34 32.279 34 31.4525C34 30.626 34.6735 29.9525 35.5 29.9525C36.3265 29.9525 37 30.626 37 31.4525C37 32.279 36.3265 32.9525 35.5 32.9525M35.5 26.9525C33.0145 26.9525 31 28.967 31 31.4525C31 33.938 33.0145 35.9525 35.5 35.9525C37.9855 35.9525 40 33.938 40 31.4525C40 28.967 37.9855 26.9525 35.5 26.9525M35.5 45.5C35.5 45.5 28 35 28 30.5C28 26.3645 31.3645 23 35.5 23C39.6355 23 43 26.3645 43 30.5C43 35 35.5 45.5 35.5 45.5M35.5 20C29.701 20 25 24.701 25 30.5C25 36.299 35.5 50 35.5 50C35.5 50 46 36.299 46 30.5C46 24.701 41.299 20 35.5 20" fill="#304659"/>
</svg>
