<svg width="90" height="70" viewBox="0 0 90 70" fill="none" xmlns="http://www.w3.org/2000/svg">
<rect opacity="0.01" width="90" height="70" fill="white"/>
<path fill-rule="evenodd" clip-rule="evenodd" d="M55.912 39.0164L53.944 38.0494L52.444 38.8574L54.085 39.6594L45.095 44.5034L36.209 39.6654L37.944 38.8804L36.449 38.0654L34.386 39.0154C34.153 39.1314 34.004 39.3684 34 39.6294C33.996 39.8894 34.137 40.1304 34.365 40.2554L44.758 45.9144C44.862 45.9714 44.977 46.0004 45.093 46.0004C45.207 46.0004 45.321 45.9724 45.425 45.9164L55.927 40.2564C56.156 40.1334 56.298 39.8924 56.295 39.6324C56.291 39.3714 56.144 39.1344 55.912 39.0164V39.0164Z" fill="#389BFF"/>
<path fill-rule="evenodd" clip-rule="evenodd" d="M55.912 34.1164L53.834 33.0614L52.335 33.8704L54.085 34.7594L45.095 39.6034L36.209 34.7654L38.076 33.8274L36.58 33.0124L34.386 34.1154C34.153 34.2324 34.004 34.4684 34 34.7294C33.996 34.9894 34.137 35.2304 34.365 35.3554L44.758 41.0144C44.862 41.0714 44.977 41.1004 45.093 41.1004C45.207 41.1004 45.321 41.0724 45.425 41.0164L55.927 35.3564C56.156 35.2334 56.298 34.9924 56.295 34.7324C56.291 34.4714 56.144 34.2344 55.912 34.1164V34.1164Z" fill="#389BFF"/>
<path fill-rule="evenodd" clip-rule="evenodd" d="M56.032 28.9734L45.639 23.6954C45.441 23.5944 45.207 23.5944 45.007 23.6934L34.506 28.9714C34.273 29.0884 34.125 29.3254 34.12 29.5854C34.116 29.8464 34.257 30.0874 34.485 30.2114L44.878 35.8714C44.983 35.9274 45.097 35.9564 45.213 35.9564C45.327 35.9564 45.441 35.9284 45.545 35.8724L56.047 30.2134C56.276 30.0904 56.418 29.8494 56.415 29.5894C56.412 29.3274 56.264 29.0914 56.032 28.9734V28.9734Z" fill="#389BFF"/>
<path fill-rule="evenodd" clip-rule="evenodd" d="M45.215 34.4604L36.329 29.6214L45.32 25.1034L54.205 29.6154L45.215 34.4604Z" fill="#2F3237"/>
</svg>
